<?xml version="1.0" encoding="iso-8859-1"?>
<!-- Generator: Adobe Illustrator 19.0.0, SVG Export Plug-In . SVG Version: 6.00 Build 0)  -->
<svg version="1.1" id="Capa_1" xmlns="http://www.w3.org/2000/svg" xmlns:xlink="http://www.w3.org/1999/xlink" x="0px" y="0px"
	 viewBox="0 0 512.032 512.032" style="enable-background:new 0 0 512.032 512.032;" xml:space="preserve">
<g>
	<g>
		<path d="M269.536,265.632c-8.576,119.488-73.248,189.856-117.888,224.416c21.088,9.44,43.68,16,67.328,19.456l9.696-7.872
			c58.688-47.584,129.696-132.224,146.112-265.568C342.112,238.432,306.752,247.328,269.536,265.632z"/>
	</g>
</g>
<g>
	<g>
		<path d="M502.08,185.216l-12.96-7.968c-46.304-28.544-167.552-85.952-315.136-24.512c18.656,29.504,45.088,58.304,82.368,83.456
			c106.944-52.192,201.28-31.264,254.016-10.144C508.704,212.064,505.888,198.432,502.08,185.216z"/>
	</g>
</g>
<g>
	<g>
		<path d="M256.128,0.032c-44.96,0-87.2,11.68-123.936,32.064l0.128,1.152c2.976,27.04,10.656,58.944,26.048,91.36
			C300.416,64,420.512,104.512,482.624,136.8C439.712,55.488,354.432,0.032,256.128,0.032z"/>
	</g>
</g>
<g>
	<g>
		<path d="M102.72,51.424c-20.8,15.616-39.136,34.24-54.336,55.36l1.376,8.928c11.648,75.104,48.192,180.544,153.952,265.056
			c17.472-31.488,30.752-70.528,34.048-118.528C145.248,199.488,112.672,116.096,102.72,51.424z"/>
	</g>
</g>
<g>
	<g>
		<path d="M23.552,149.376C8.576,181.952,0,218.08,0,256.256c0,91.68,48.288,171.872,120.64,217.152l3.072-2.208
			c18.112-12.96,41.664-33.92,62.848-63.232C83.68,326.976,40.736,227.68,23.552,149.376z"/>
	</g>
</g>
<g>
	<g>
		<path d="M507.712,259.68c-26.88-11.904-61.248-22.144-100.608-24.096c-15.2,134.08-81.44,222.592-141.728,276.416
			c135.36-4.832,243.84-114.496,246.656-250.432L507.712,259.68z"/>
	</g>
</g>
<g>
</g>
<g>
</g>
<g>
</g>
<g>
</g>
<g>
</g>
<g>
</g>
<g>
</g>
<g>
</g>
<g>
</g>
<g>
</g>
<g>
</g>
<g>
</g>
<g>
</g>
<g>
</g>
<g>
</g>
</svg>
